<svg width="37" height="6" viewBox="0 0 37 6" fill="none" xmlns="http://www.w3.org/2000/svg">
<path d="M1.83239 5.06818C1.51705 5.06818 1.24503 4.99858 1.01634 4.85938C0.789062 4.71875 0.613636 4.52273 0.490057 4.27131C0.367898 4.01847 0.306818 3.72443 0.306818 3.3892C0.306818 3.05398 0.367898 2.75852 0.490057 2.50284C0.613636 2.24574 0.785511 2.04545 1.00568 1.90199C1.22727 1.7571 1.4858 1.68466 1.78125 1.68466C1.9517 1.68466 2.12003 1.71307 2.28622 1.76989C2.45241 1.8267 2.60369 1.91903 2.74006 2.04688C2.87642 2.1733 2.98509 2.34091 3.06605 2.54972C3.14702 2.75852 3.1875 3.01562 3.1875 3.32102V3.53409H0.664773V3.09943H2.67614C2.67614 2.91477 2.6392 2.75 2.56534 2.60511C2.4929 2.46023 2.3892 2.34588 2.25426 2.26207C2.12074 2.17827 1.96307 2.13636 1.78125 2.13636C1.58097 2.13636 1.40767 2.18608 1.26136 2.28551C1.11648 2.38352 1.00497 2.51136 0.926847 2.66903C0.848722 2.8267 0.809659 2.99574 0.809659 3.17614V3.46591C0.809659 3.71307 0.852273 3.92259 0.9375 4.09446C1.02415 4.26491 1.14418 4.39489 1.29759 4.48438C1.45099 4.57244 1.62926 4.61648 1.83239 4.61648C1.96449 4.61648 2.08381 4.59801 2.19034 4.56108C2.2983 4.52273 2.39134 4.46591 2.46946 4.39062C2.54759 4.31392 2.60795 4.21875 2.65057 4.10511L3.13636 4.24148C3.08523 4.40625 2.99929 4.55114 2.87855 4.67614C2.75781 4.79972 2.60866 4.89631 2.43111 4.96591C2.25355 5.03409 2.05398 5.06818 1.83239 5.06818ZM5.82741 2.89489V3.36364H3.91832V2.89489H5.82741ZM10.2917 2H9.76332C9.73207 1.84801 9.67738 1.71449 9.59925 1.59943C9.52255 1.48438 9.4288 1.38778 9.318 1.30966C9.20863 1.23011 9.08718 1.17045 8.95366 1.13068C8.82014 1.09091 8.68093 1.07102 8.53604 1.07102C8.27184 1.07102 8.03249 1.13778 7.818 1.27131C7.60494 1.40483 7.43519 1.60156 7.30877 1.86151C7.18377 2.12145 7.12127 2.44034 7.12127 2.81818C7.12127 3.19602 7.18377 3.51491 7.30877 3.77486C7.43519 4.0348 7.60494 4.23153 7.818 4.36506C8.03249 4.49858 8.27184 4.56534 8.53604 4.56534C8.68093 4.56534 8.82014 4.54545 8.95366 4.50568C9.08718 4.46591 9.20863 4.40696 9.318 4.32884C9.4288 4.24929 9.52255 4.15199 9.59925 4.03693C9.67738 3.92045 9.73207 3.78693 9.76332 3.63636H10.2917C10.252 3.85937 10.1795 4.05895 10.0744 4.23509C9.96928 4.41122 9.8386 4.56108 9.68235 4.68466C9.5261 4.80682 9.35067 4.89986 9.15607 4.96378C8.96289 5.0277 8.75621 5.05966 8.53604 5.05966C8.16389 5.05966 7.83292 4.96875 7.54315 4.78693C7.25337 4.60511 7.02539 4.34659 6.8592 4.01136C6.693 3.67614 6.60991 3.27841 6.60991 2.81818C6.60991 2.35795 6.693 1.96023 6.8592 1.625C7.02539 1.28977 7.25337 1.03125 7.54315 0.849432C7.83292 0.667614 8.16389 0.576704 8.53604 0.576704C8.75621 0.576704 8.96289 0.608665 9.15607 0.672585C9.35067 0.736506 9.5261 0.830256 9.68235 0.953835C9.8386 1.07599 9.96928 1.22514 10.0744 1.40128C10.1795 1.57599 10.252 1.77557 10.2917 2ZM12.407 5.06818C12.1115 5.06818 11.8523 4.99787 11.6293 4.85724C11.4077 4.71662 11.2344 4.51989 11.1094 4.26705C10.9858 4.0142 10.924 3.71875 10.924 3.38068C10.924 3.03977 10.9858 2.74219 11.1094 2.48793C11.2344 2.23366 11.4077 2.03622 11.6293 1.8956C11.8523 1.75497 12.1115 1.68466 12.407 1.68466C12.7024 1.68466 12.9609 1.75497 13.1825 1.8956C13.4055 2.03622 13.5788 2.23366 13.7024 2.48793C13.8274 2.74219 13.8899 3.03977 13.8899 3.38068C13.8899 3.71875 13.8274 4.0142 13.7024 4.26705C13.5788 4.51989 13.4055 4.71662 13.1825 4.85724C12.9609 4.99787 12.7024 5.06818 12.407 5.06818ZM12.407 4.61648C12.6314 4.61648 12.8161 4.55895 12.9609 4.44389C13.1058 4.32884 13.2131 4.17756 13.2827 3.99006C13.3523 3.80256 13.3871 3.59943 13.3871 3.38068C13.3871 3.16193 13.3523 2.9581 13.2827 2.76918C13.2131 2.58026 13.1058 2.42756 12.9609 2.31108C12.8161 2.1946 12.6314 2.13636 12.407 2.13636C12.1825 2.13636 11.9979 2.1946 11.853 2.31108C11.7081 2.42756 11.6009 2.58026 11.5312 2.76918C11.4616 2.9581 11.4268 3.16193 11.4268 3.38068C11.4268 3.59943 11.4616 3.80256 11.5312 3.99006C11.6009 4.17756 11.7081 4.32884 11.853 4.44389C11.9979 4.55895 12.1825 4.61648 12.407 4.61648ZM14.6575 5V1.72727H15.1433V2.23864H15.1859C15.2541 2.06392 15.3642 1.92827 15.5162 1.83168C15.6681 1.73366 15.8507 1.68466 16.0637 1.68466C16.2797 1.68466 16.4593 1.73366 16.6028 1.83168C16.7477 1.92827 16.8606 2.06392 16.9416 2.23864H16.9757C17.0595 2.0696 17.1852 1.93537 17.3528 1.83594C17.5204 1.73509 17.7214 1.68466 17.9558 1.68466C18.2484 1.68466 18.4877 1.77628 18.6738 1.95952C18.8599 2.14134 18.9529 2.42472 18.9529 2.80966V5H18.4501V2.80966C18.4501 2.56818 18.3841 2.3956 18.252 2.2919C18.1199 2.18821 17.9643 2.13636 17.7853 2.13636C17.5552 2.13636 17.377 2.20597 17.2505 2.34517C17.1241 2.48295 17.0609 2.65767 17.0609 2.86932V5H16.5495V2.75852C16.5495 2.57244 16.4892 2.42259 16.3684 2.30895C16.2477 2.19389 16.0922 2.13636 15.9018 2.13636C15.7711 2.13636 15.649 2.17116 15.5353 2.24077C15.4231 2.31037 15.3322 2.40696 15.2626 2.53054C15.1944 2.6527 15.1603 2.79403 15.1603 2.95455V5H14.6575ZM19.8723 5V1.72727H20.3581V2.23864H20.4007C20.4689 2.06392 20.579 1.92827 20.731 1.83168C20.883 1.73366 21.0655 1.68466 21.2786 1.68466C21.4945 1.68466 21.6742 1.73366 21.8176 1.83168C21.9625 1.92827 22.0755 2.06392 22.1564 2.23864H22.1905C22.2743 2.0696 22.4 1.93537 22.5676 1.83594C22.7353 1.73509 22.9363 1.68466 23.1706 1.68466C23.4632 1.68466 23.7026 1.77628 23.8887 1.95952C24.0748 2.14134 24.1678 2.42472 24.1678 2.80966V5H23.665V2.80966C23.665 2.56818 23.5989 2.3956 23.4668 2.2919C23.3347 2.18821 23.1792 2.13636 23.0002 2.13636C22.7701 2.13636 22.5918 2.20597 22.4654 2.34517C22.339 2.48295 22.2757 2.65767 22.2757 2.86932V5H21.7644V2.75852C21.7644 2.57244 21.704 2.42259 21.5833 2.30895C21.4625 2.19389 21.307 2.13636 21.1167 2.13636C20.986 2.13636 20.8638 2.17116 20.7502 2.24077C20.638 2.31037 20.5471 2.40696 20.4775 2.53054C20.4093 2.6527 20.3752 2.79403 20.3752 2.95455V5H19.8723ZM26.4593 5.06818C26.144 5.06818 25.872 4.99858 25.6433 4.85938C25.416 4.71875 25.2406 4.52273 25.117 4.27131C24.9949 4.01847 24.9338 3.72443 24.9338 3.3892C24.9338 3.05398 24.9949 2.75852 25.117 2.50284C25.2406 2.24574 25.4125 2.04545 25.6326 1.90199C25.8542 1.7571 26.1127 1.68466 26.4082 1.68466C26.5787 1.68466 26.747 1.71307 26.9132 1.76989C27.0794 1.8267 27.2306 1.91903 27.367 2.04688C27.5034 2.1733 27.612 2.34091 27.693 2.54972C27.774 2.75852 27.8145 3.01562 27.8145 3.32102V3.53409H25.2917V3.09943H27.3031C27.3031 2.91477 27.2662 2.75 27.1923 2.60511C27.1199 2.46023 27.0162 2.34588 26.8812 2.26207C26.7477 2.17827 26.59 2.13636 26.4082 2.13636C26.2079 2.13636 26.0346 2.18608 25.8883 2.28551C25.7434 2.38352 25.6319 2.51136 25.5538 2.66903C25.4757 2.8267 25.4366 2.99574 25.4366 3.17614V3.46591C25.4366 3.71307 25.4792 3.92259 25.5645 4.09446C25.6511 4.26491 25.7711 4.39489 25.9245 4.48438C26.0779 4.57244 26.2562 4.61648 26.4593 4.61648C26.5914 4.61648 26.7108 4.59801 26.8173 4.56108C26.9252 4.52273 27.0183 4.46591 27.0964 4.39062C27.1745 4.31392 27.2349 4.21875 27.2775 4.10511L27.7633 4.24148C27.7122 4.40625 27.6262 4.55114 27.5055 4.67614C27.3848 4.79972 27.2356 4.89631 27.0581 4.96591C26.8805 5.03409 26.6809 5.06818 26.4593 5.06818ZM28.5794 5V1.72727H29.0652V2.22159H29.0993C29.1589 2.05966 29.2669 1.92827 29.4231 1.82741C29.5794 1.72656 29.7555 1.67614 29.9515 1.67614C29.9885 1.67614 30.0346 1.67685 30.09 1.67827C30.1454 1.67969 30.1873 1.68182 30.2157 1.68466V2.19602C30.1987 2.19176 30.1596 2.18537 30.0985 2.17685C30.0389 2.1669 29.9757 2.16193 29.9089 2.16193C29.7498 2.16193 29.6078 2.19531 29.4828 2.26207C29.3592 2.32741 29.2612 2.41832 29.1887 2.5348C29.1177 2.64986 29.0822 2.78125 29.0822 2.92898V5H28.5794ZM32.0417 5.06818C31.7349 5.06818 31.4707 4.99574 31.2491 4.85085C31.0275 4.70597 30.8571 4.50639 30.7377 4.25213C30.6184 3.99787 30.5588 3.70739 30.5588 3.38068C30.5588 3.0483 30.6199 2.75497 30.742 2.50071C30.8656 2.24503 31.0375 2.04545 31.2576 1.90199C31.4792 1.7571 31.7377 1.68466 32.0332 1.68466C32.2633 1.68466 32.4707 1.72727 32.6554 1.8125C32.84 1.89773 32.9913 2.01705 33.1092 2.17045C33.2271 2.32386 33.3002 2.50284 33.3287 2.70739H32.8258C32.7875 2.55824 32.7022 2.42614 32.5701 2.31108C32.4395 2.1946 32.2633 2.13636 32.0417 2.13636C31.8457 2.13636 31.6738 2.1875 31.5261 2.28977C31.3798 2.39062 31.2654 2.53338 31.1831 2.71804C31.1021 2.90128 31.0616 3.11648 31.0616 3.36364C31.0616 3.61648 31.1014 3.83665 31.1809 4.02415C31.2619 4.21165 31.3755 4.35724 31.5218 4.46094C31.6696 4.56463 31.8429 4.61648 32.0417 4.61648C32.1724 4.61648 32.291 4.59375 32.3975 4.5483C32.5041 4.50284 32.5943 4.4375 32.6681 4.35227C32.742 4.26705 32.7946 4.16477 32.8258 4.04545H33.3287C33.3002 4.23864 33.2299 4.41264 33.1177 4.56747C33.0069 4.72088 32.8599 4.84304 32.6767 4.93395C32.4949 5.02344 32.2832 5.06818 32.0417 5.06818ZM35.4359 5.06818C35.1206 5.06818 34.8485 4.99858 34.6199 4.85938C34.3926 4.71875 34.2172 4.52273 34.0936 4.27131C33.9714 4.01847 33.9103 3.72443 33.9103 3.3892C33.9103 3.05398 33.9714 2.75852 34.0936 2.50284C34.2172 2.24574 34.389 2.04545 34.6092 1.90199C34.8308 1.7571 35.0893 1.68466 35.3848 1.68466C35.5552 1.68466 35.7235 1.71307 35.8897 1.76989C36.0559 1.8267 36.2072 1.91903 36.3436 2.04688C36.4799 2.1733 36.5886 2.34091 36.6696 2.54972C36.7505 2.75852 36.791 3.01562 36.791 3.32102V3.53409H34.2683V3.09943H36.2797C36.2797 2.91477 36.2427 2.75 36.1689 2.60511C36.0964 2.46023 35.9927 2.34588 35.8578 2.26207C35.7243 2.17827 35.5666 2.13636 35.3848 2.13636C35.1845 2.13636 35.0112 2.18608 34.8649 2.28551C34.72 2.38352 34.6085 2.51136 34.5304 2.66903C34.4522 2.8267 34.4132 2.99574 34.4132 3.17614V3.46591C34.4132 3.71307 34.4558 3.92259 34.541 4.09446C34.6277 4.26491 34.7477 4.39489 34.9011 4.48438C35.0545 4.57244 35.2328 4.61648 35.4359 4.61648C35.568 4.61648 35.6873 4.59801 35.7939 4.56108C35.9018 4.52273 35.9949 4.46591 36.073 4.39062C36.1511 4.31392 36.2115 4.21875 36.2541 4.10511L36.7399 4.24148C36.6887 4.40625 36.6028 4.55114 36.4821 4.67614C36.3613 4.79972 36.2122 4.89631 36.0346 4.96591C35.8571 5.03409 35.6575 5.06818 35.4359 5.06818Z" fill="black"/>
</svg>
